<?xml version="1.0" standalone="no"?>
<!DOCTYPE svg PUBLIC "-//W3C//DTD SVG 20010904//EN"
 "http://www.w3.org/TR/2001/REC-SVG-20010904/DTD/svg10.dtd">
<svg version="1.0" xmlns="http://www.w3.org/2000/svg"
 width="260.000000pt" height="260.000000pt" viewBox="0 0 260.000000 260.000000"
 preserveAspectRatio="xMidYMid meet">
<metadata>
Created by potrace 1.11, written by Peter Selinger 2001-2013
</metadata>
<g transform="translate(0.000000,260.000000) scale(0.100000,-0.100000)"
fill="#000000" stroke="none">
<path d="M289 1783 c-1 -5 -2 -217 -3 -471 -1 -503 -4 -481 52 -476 32 2 36 8
34 55 l-2 41 32 -30 c54 -54 113 -76 203 -76 69 -1 88 4 138 28 113 56 170
156 165 291 -5 127 -52 204 -163 263 -44 23 -61 27 -140 27 -79 0 -96 -4 -143
-28 -28 -15 -58 -36 -64 -47 -7 -11 -16 -20 -20 -20 -4 0 -8 93 -8 208 1 114
1 215 0 225 0 13 -9 17 -40 17 -22 0 -41 -3 -41 -7z m432 -458 c136 -95 126
-320 -19 -397 -37 -20 -60 -25 -107 -24 -246 8 -312 332 -90 438 60 28 161 20
216 -17z"/>
<path d="M2130 1316 c0 -262 3 -476 8 -477 44 -5 64 -3 71 6 5 5 8 219 7 475
l-1 465 -42 3 -43 3 0 -475z"/>
<path d="M1255 1433 c-26 -7 -64 -31 -97 -62 l-28 -25 0 41 0 41 -43 -1 -43
-2 0 -292 c1 -188 5 -293 11 -294 6 0 20 -2 32 -3 12 -1 27 0 32 4 7 3 12 81
13 195 3 175 5 193 26 232 32 61 87 95 149 92 77 -4 112 -37 127 -122 4 -21 7
-118 7 -217 -1 -153 1 -180 14 -181 8 -1 27 -1 43 -2 l27 -1 1 190 c2 178 4
194 25 239 30 62 64 87 127 93 68 6 114 -17 138 -70 16 -35 18 -69 19 -240 0
-141 4 -201 12 -206 10 -6 44 -7 73 -3 7 1 4 363 -4 423 -13 96 -61 151 -144
169 -99 20 -174 -1 -237 -68 l-34 -36 -10 24 c-16 45 -82 81 -153 85 -35 1
-72 0 -83 -3z"/>
</g>
</svg>
