<svg version="1.0" xmlns="http://www.w3.org/2000/svg"
 width="100%" height="100%" viewBox="0 0 594.000000 150.000000"
 preserveAspectRatio="xMidYMid meet">
<metadata>
Created by potrace 1.10, written by Peter Selinger 2001-2011
</metadata>
<g transform="translate(0.000000,150.000000) scale(0.100000,-0.100000)"
fill="#5b8ce8" stroke="none">
<path d="M17 1459 c-16 -9 -17 -54 -17 -713 0 -633 2 -704 16 -710 9 -3 58 -6
109 -6 103 0 105 1 105 71 0 21 3 39 6 39 4 0 25 -16 47 -36 110 -100 318
-121 472 -49 104 50 201 171 227 285 42 190 3 363 -111 491 -60 67 -145 111
-252 129 -111 18 -226 -8 -309 -70 -44 -33 -70 -43 -71 -27 0 7 0 139 1 295 1
204 -2 288 -11 298 -14 17 -183 20 -212 3z m554 -710 c87 -27 139 -73 176
-157 53 -121 7 -264 -110 -340 -38 -24 -51 -27 -137 -27 -86 0 -99 3 -136 27
-79 51 -134 149 -134 240 0 81 63 193 130 229 67 37 149 48 211 28z"/>
<path d="M5695 1461 c-4 -7 -8 -1116 -5 -1413 0 -16 11 -18 94 -18 51 0 108 3
125 6 l31 7 0 707 0 708 -31 6 c-48 9 -207 7 -214 -3z"/>
<path d="M1558 955 c-238 -40 -398 -227 -398 -465 0 -136 43 -243 135 -335
102 -103 195 -139 360 -139 113 0 176 14 257 56 48 25 128 96 128 114 0 13
-138 124 -154 124 -4 0 -28 -17 -54 -39 -73 -60 -105 -73 -191 -74 -58 0 -85
5 -116 20 -67 35 -128 115 -123 161 l3 27 340 5 340 5 3 71 c3 78 -21 188 -57
259 -61 123 -158 191 -302 214 -76 13 -71 13 -171 -4z m137 -170 c92 -24 161
-101 153 -171 l-3 -29 -220 0 c-218 0 -220 0 -223 22 -4 28 30 93 67 129 28
26 113 62 151 63 9 1 43 -6 75 -14z"/>
<path d="M2723 955 c-57 -14 -98 -40 -137 -86 -36 -42 -56 -33 -56 25 0 31 -5
46 -16 50 -20 8 -152 8 -182 0 l-22 -6 2 -452 3 -451 110 0 110 0 5 280 c5
240 8 286 23 320 29 64 73 103 132 116 75 17 122 5 165 -40 53 -55 60 -102 60
-389 0 -136 3 -257 6 -269 6 -22 11 -23 110 -23 102 0 104 0 110 25 3 13 4
172 2 352 -5 363 -4 359 -75 449 -43 55 -104 89 -184 103 -78 13 -98 13 -166
-4z"/>
<path d="M4372 955 c-55 -14 -137 -68 -147 -97 -4 -10 -13 -18 -20 -18 -15 0
-22 21 -27 75 l-3 30 -87 3 c-142 5 -129 55 -126 -466 l3 -447 110 0 110 0 5
280 c5 257 7 284 27 325 26 57 67 93 119 108 87 25 154 6 193 -52 l26 -41 5
-310 5 -310 110 0 110 0 6 280 c6 308 10 334 65 388 54 52 126 69 194 45 38
-13 57 -31 84 -79 18 -31 20 -62 25 -334 l6 -300 110 0 110 0 0 325 c0 342 -3
368 -48 455 -60 115 -192 170 -344 144 -85 -14 -130 -37 -189 -94 -25 -25 -50
-45 -55 -45 -5 0 -15 12 -23 28 -24 46 -102 94 -175 109 -80 15 -110 15 -179
-2z"/>
<path d="M3485 294 c-48 -24 -75 -72 -75 -131 0 -59 27 -100 84 -127 134 -64
273 86 191 207 -14 20 -39 44 -55 52 -37 19 -106 18 -145 -1z"/>
</g>
</svg>